<svg xmlns="http://www.w3.org/2000/svg" version="1.1" xmlns:xlink="http://www.w3.org/1999/xlink" xmlns:svgjs="http://svgjs.dev/svgjs" width="100%" height="100%" viewBox="0 0 1000 600"><rect width="1000" height="600" x="0" y="0" fill="#358597"/><g><rect width="333.3333333333333" height="333.3333333333333" y="93.8081465649316" fill="#f4a896" transform="matrix(1.7461531307233924,0,0,1.7461531307233924,0,-154.8289286747343)" x="71.58592987060547"/><path d="M136.41433255172024 335.47481967637634L121.08354369804569 335.47481967637634Q118.57082104360525 335.47481967637634 119.2387599770641 332.96209702193596L119.2387599770641 332.96209702193596L169.8430858405418 187.31960291202756Q170.5428313898796 185.47481919104598 172.61026142201416 185.47481919104598L172.61026142201416 185.47481919104598L192.99830220044862 185.47481919104598Q195.03392561670415 185.47481919104598 195.73367116604197 187.31960291202756L195.73367116604197 187.31960291202756L247.03774257885755 332.96209702193596Q247.70568151231635 335.47481967637634 245.19295885787596 335.47481967637634L245.19295885787596 335.47481967637634L228.9397781437106 335.47481967637634Q226.872348111576 335.47481967637634 226.2044091781172 333.63003595539476L226.2044091781172 333.63003595539476L191.85326402880486 230.5766005074579Q189.5631876855174 223.70637147759538 187.27311134222987 216.83614244773293Q184.9830349989424 209.96591341787047 182.43850572862294 203.095684388008L182.43850572862294 203.095684388008L182.21585941747003 203.095684388008Q179.9257830741825 209.74326710671752 177.63570673089504 216.518076288943Q175.34563038760757 223.2610788552895 173.05555404432005 229.90866157399904L173.05555404432005 229.90866157399904L139.18150813319266 333.63003595539476Q138.4817625838548 335.47481967637634 136.41433255172024 335.47481967637634L136.41433255172024 335.47481967637634ZM218.63443459891687 300.42392897772623L146.497029785361 300.42392897772623L151.2998287830889 283.502809330102L213.608989290036 283.502809330102L218.63443459891687 300.42392897772623ZM355.11662333567534 335.47481967637634L340.23112710430667 335.47481967637634Q337.9410507610192 335.47481967637634 337.9410507610192 333.1847433330888L337.9410507610192 333.1847433330888L337.9410507610192 260.1249466590422Q337.9410507610192 248.67456494260483 333.26547822680726 243.42647332257098Q328.55809907671625 238.14657508665817 319.17514739241335 238.14657508665817L319.17514739241335 238.14657508665817Q310.23748833041634 238.14657508665817 301.5224755795723 243.42647332257098Q292.8392694446072 248.67456494260483 279.76675031834117 261.49263114183896L279.76675031834117 261.49263114183896L280.02120324537316 243.87176594487687Q287.7820175198474 235.63385243221774 294.7794730132258 230.5766005074579Q301.77692850660424 225.55115519857696 308.7425773841037 223.2610788552895Q315.7400328774821 220.97100251200203 323.53265376783537 220.97100251200203L323.53265376783537 220.97100251200203Q340.00848079315375 220.97100251200203 348.7234935439978 230.5766005074579Q357.40669967896287 240.21400511879273 357.40669967896287 259.2025547985515L357.40669967896287 259.2025547985515L357.40669967896287 333.1847433330888Q357.40669967896287 335.47481967637634 355.11662333567534 335.47481967637634L355.11662333567534 335.47481967637634ZM281.61153403932275 335.47481967637634L266.7260378079541 335.47481967637634Q264.4359614646666 335.47481967637634 264.4359614646666 333.1847433330888L264.4359614646666 333.1847433330888L264.4359614646666 251.66438683523012Q264.4359614646666 245.7165496658585 263.86344237884475 238.27380155017414Q263.2909232930229 230.83105343448983 262.84563067071696 226.69619337022073L262.84563067071696 226.69619337022073Q262.3685314325321 223.70637147759538 265.1357070140044 223.70637147759538L265.1357070140044 223.70637147759538L279.0988113848823 223.70637147759538Q281.16624141701686 223.70637147759538 281.61153403932275 225.9964478208829L281.61153403932275 225.9964478208829Q282.0568266616287 227.8412315418645 282.53392589981354 231.7216386791016Q282.9792185221195 235.63385243221774 283.4563177603044 239.8641323441238Q283.9016103826103 244.09441225602984 283.9016103826103 247.08423414865518L283.9016103826103 247.08423414865518L283.9016103826103 253.03207131802685L283.9016103826103 333.1847433330888Q283.9016103826103 335.47481967637634 281.61153403932275 335.47481967637634L281.61153403932275 335.47481967637634Z " fill="#358597" transform="matrix(1.7461531307233924,0,0,1.7461531307233924,0,-154.8289286747343)"/><path d="M499.62369919459394 335.4748162876225L489.7304317905862 335.4748162876225Q488.2525993152987 335.4748162876225 488.2525993152987 333.996983812335L488.2525993152987 333.996983812335L488.2525993152987 186.95265252123232Q488.2525993152987 185.47482004594485 489.7304317905862 185.47482004594485L489.7304317905862 185.47482004594485L499.62369919459394 185.47482004594485Q501.1015316698814 185.47482004594485 501.1015316698814 186.95265252123232L501.1015316698814 186.95265252123232L501.1015316698814 333.996983812335Q501.1015316698814 335.4748162876225 499.62369919459394 335.4748162876225L499.62369919459394 335.4748162876225Z " fill="#f4a896" transform="matrix(1.7461531307233924,0,0,1.7461531307233924,0,-154.8289286747343)"/></g></svg>